<svg width="128" height="130" viewBox="0 0 128 130" fill="none" xmlns="http://www.w3.org/2000/svg">
<path d="M60.9853 100H54.4653L52.6453 103H49.1853L58.2453 89H61.4453L64.8853 103H61.6453L60.9853 100ZM60.4453 97.54L59.2653 92.14L55.9653 97.54H60.4453ZM69.1378 89H72.3978L69.5978 103H66.3378L69.1378 89ZM74.1203 103.16C73.587 103.16 73.147 102.993 72.8003 102.66C72.4536 102.313 72.2803 101.88 72.2803 101.36C72.2803 100.747 72.4803 100.247 72.8803 99.86C73.2803 99.4733 73.7736 99.28 74.3603 99.28C74.8936 99.28 75.327 99.4467 75.6603 99.78C76.007 100.113 76.1803 100.547 76.1803 101.08C76.1803 101.68 75.9736 102.18 75.5603 102.58C75.1603 102.967 74.6803 103.16 74.1203 103.16ZM16.9951 113C18.7417 113 20.0884 113.387 21.0351 114.16C21.9951 114.92 22.4751 115.987 22.4751 117.36C22.4751 118.533 22.1951 119.56 21.6351 120.44C21.0884 121.307 20.3017 121.973 19.2751 122.44C18.2617 122.907 17.0617 123.14 15.6751 123.14H12.5551L11.7951 127H8.53508L11.3351 113H16.9951ZM15.8151 120.5C16.8951 120.5 17.7284 120.253 18.3151 119.76C18.9017 119.267 19.1951 118.56 19.1951 117.64C19.1951 116.973 18.9684 116.473 18.5151 116.14C18.0751 115.807 17.4351 115.64 16.5951 115.64H14.0551L13.0751 120.5H15.8151ZM30.4435 127.24C29.0435 127.24 27.8302 126.987 26.8035 126.48C25.7768 125.973 24.9902 125.26 24.4435 124.34C23.8968 123.42 23.6235 122.36 23.6235 121.16C23.6235 119.573 23.9835 118.147 24.7035 116.88C25.4368 115.6 26.4568 114.593 27.7635 113.86C29.0835 113.127 30.5902 112.76 32.2835 112.76C33.6835 112.76 34.8968 113.013 35.9235 113.52C36.9502 114.027 37.7368 114.74 38.2835 115.66C38.8302 116.58 39.1035 117.64 39.1035 118.84C39.1035 120.427 38.7368 121.86 38.0035 123.14C37.2835 124.407 36.2635 125.407 34.9435 126.14C33.6368 126.873 32.1368 127.24 30.4435 127.24ZM30.7235 124.48C31.7502 124.48 32.6502 124.233 33.4235 123.74C34.1968 123.247 34.7902 122.587 35.2035 121.76C35.6168 120.933 35.8235 120.02 35.8235 119.02C35.8235 117.953 35.4902 117.107 34.8235 116.48C34.1568 115.84 33.2168 115.52 32.0035 115.52C30.9768 115.52 30.0768 115.767 29.3035 116.26C28.5302 116.753 27.9368 117.413 27.5235 118.24C27.1102 119.067 26.9035 119.98 26.9035 120.98C26.9035 122.047 27.2368 122.9 27.9035 123.54C28.5702 124.167 29.5102 124.48 30.7235 124.48ZM63.5698 113L56.1698 127H52.7098L51.4898 117.58L46.4298 127H42.9498L41.1698 113H44.3698L45.6098 122.84L50.8698 113H53.8698L55.0698 122.92L60.3498 113H63.5698ZM68.0585 115.6L67.4585 118.64H73.9585L73.4585 121.16H66.9385L66.2985 124.4H73.9385L73.3985 127H62.5585L65.3585 113H75.9385L75.3985 115.6H68.0585ZM89.9565 117.34C89.9565 118.647 89.6032 119.767 88.8965 120.7C88.1898 121.633 87.2098 122.293 85.9565 122.68L88.3965 127H84.9765L82.7765 123.08H80.0165L79.2365 127H75.9765L78.7765 113H84.4765C86.2098 113 87.5565 113.38 88.5165 114.14C89.4765 114.9 89.9565 115.967 89.9565 117.34ZM83.2765 120.5C84.3565 120.5 85.1898 120.253 85.7765 119.76C86.3765 119.267 86.6765 118.56 86.6765 117.64C86.6765 116.973 86.4498 116.473 85.9965 116.14C85.5432 115.807 84.8965 115.64 84.0565 115.64H81.4965L80.5165 120.5H83.2765ZM96.1835 115.6L95.5835 118.64H102.084L101.584 121.16H95.0635L94.4235 124.4H102.064L101.524 127H90.6835L93.4835 113H104.064L103.524 115.6H96.1835ZM106.901 113H112.761C114.188 113 115.415 113.24 116.441 113.72C117.481 114.187 118.275 114.86 118.821 115.74C119.381 116.62 119.661 117.653 119.661 118.84C119.661 120.467 119.295 121.9 118.561 123.14C117.828 124.367 116.801 125.32 115.481 126C114.175 126.667 112.661 127 110.941 127H104.101L106.901 113ZM111.041 124.34C112.135 124.34 113.081 124.113 113.881 123.66C114.695 123.193 115.315 122.56 115.741 121.76C116.168 120.947 116.381 120.033 116.381 119.02C116.381 117.967 116.041 117.147 115.361 116.56C114.681 115.96 113.695 115.66 112.401 115.66H109.621L107.881 124.34H111.041Z" fill="white"/>
<path d="M22.0015 14.7043L22.3863 25.8047C22.3908 25.9358 22.438 26.0618 22.5206 26.1637L25.8309 30.2553C25.9543 30.408 26.1427 30.4898 26.3406 30.4783L40.822 29.5178L46.8509 36.8732C46.9641 37.0115 47.1329 37.0925 47.3118 37.0945L64.6148 37.2822C64.8984 38.3806 65.8942 39.1953 67.0793 39.1953C68.4848 39.1953 69.6282 38.0519 69.6282 36.6463C69.6282 35.2408 68.4848 34.0973 67.0793 34.0973C65.8714 34.0973 64.8594 34.9433 64.5985 36.0734L47.6068 35.889L41.5597 28.511C41.436 28.3601 41.2474 28.2773 41.0524 28.2912L26.5732 29.2515L23.5871 25.5607L23.2188 14.9371L33.9284 4.93605C34.3124 5.16853 34.7609 5.3048 35.2416 5.3048C36.6466 5.3048 37.7896 4.16139 37.7896 2.75589C37.7896 1.34555 36.6466 0.198064 35.2416 0.198064C33.8365 0.198064 32.6936 1.34555 32.6936 2.75589C32.6936 3.24262 32.833 3.69611 33.0705 4.08329L22.1929 14.2415C22.0654 14.3611 21.9955 14.5297 22.0015 14.7043Z" fill="white"/>
<path d="M75.9415 5.10841C77.1717 5.10841 78.2011 4.22861 78.4387 3.06254L84.0039 3.06254L92.5036 11.3282L92.5036 15.9332C91.3431 16.1711 90.4677 17.2005 90.4677 18.4303C90.4677 19.8411 91.6111 20.9889 93.0166 20.9889C94.4265 20.9889 95.5735 19.8411 95.5735 18.4303C95.5735 17.2653 94.7846 16.2826 93.7122 15.9796L93.7122 11.0729C93.7122 10.9097 93.6462 10.7535 93.5293 10.6398L84.6707 2.02518C84.5579 1.91536 84.4068 1.85403 84.2494 1.85403L78.3916 1.85403C78.0881 0.785702 77.1059 1.55516e-05 75.9415 1.54499e-05C74.5316 1.53266e-05 73.3846 1.14342 73.3846 2.54892C73.3846 3.96016 74.5316 5.10841 75.9415 5.10841Z" fill="white"/>
<path d="M92.2434 28.7648C92.2076 28.7648 92.1727 28.7687 92.1372 28.7702L86.6068 24.9876L86.6883 17.4752C87.9189 17.2957 88.868 16.2361 88.868 14.956C88.868 13.5451 87.7251 12.3973 86.32 12.3973C84.9097 12.3973 83.7622 13.5451 83.7622 14.956C83.7622 16.0681 84.482 17.0138 85.4809 17.3611L85.3948 25.2976C85.3927 25.4994 85.4913 25.689 85.6579 25.8029L90.7285 29.2709C90.1031 29.7375 89.6956 30.4824 89.6956 31.3228C89.6956 32.7283 90.8385 33.8717 92.2436 33.8717C92.2635 33.8717 92.2828 33.8691 92.3026 33.8686L92.3921 36.823L82.5765 45.6911C82.4386 45.8156 82.3656 45.9967 82.3789 46.1822C82.4631 46.5448 82.8262 47.094 83.6053 46.3902L93.4096 37.5321C93.5412 37.4134 93.6139 37.2427 93.6084 37.0655L93.5016 33.5363C94.2708 33.0972 94.7917 32.2702 94.7917 31.3226C94.7914 29.9123 93.6485 28.7648 92.2434 28.7648Z" fill="white"/>
<path d="M76.535 44.2913C76.5377 44.1274 76.4738 43.9694 76.3578 43.8537C76.2445 43.7404 76.0909 43.677 75.9309 43.677L75.9199 43.6771L44.0902 44.259L40.2876 39.6243C40.6243 39.1922 40.8269 38.6504 40.8269 38.0611C40.8269 36.6552 39.6839 35.5113 38.2789 35.5113C36.8738 35.5113 35.7309 36.6552 35.7309 38.0611C35.7309 39.4672 36.8738 40.6111 38.2789 40.6111C38.6582 40.6111 39.0173 40.5254 39.3409 40.3759L43.3414 45.2516C43.4563 45.3917 43.6278 45.4727 43.8086 45.4727L43.8196 45.4725L75.3161 44.8966C75.7815 44.8997 76.6768 44.7828 76.535 44.2913Z" fill="white"/>
<path d="M55.9111 28.662C55.9111 30.0675 57.054 31.2109 58.4591 31.2109C59.864 31.2109 61.0071 30.0675 61.0071 28.662C61.0071 27.4839 60.2096 26.4918 59.1292 26.1951L58.8618 18.0264C58.8564 17.8603 58.783 17.704 58.6586 17.594L53.9911 13.4561C53.8805 13.3582 53.7379 13.3039 53.5901 13.3039L50.2232 13.3039C49.9986 12.1256 48.9586 11.2315 47.7119 11.2315C46.307 11.2315 45.1641 12.3749 45.1641 13.7804C45.1641 15.186 46.307 16.3294 47.7119 16.3294C48.867 16.3294 49.8445 15.5622 50.161 14.5124L53.361 14.5124L57.6628 18.3258L57.9192 26.1615C56.7726 26.4113 55.9111 27.4369 55.9111 28.662Z" fill="white"/>
<path d="M47.9918 19.126C46.7786 19.126 45.7626 19.9792 45.5073 21.1169L32.0033 21.1169C31.7153 20.025 30.7225 19.2167 29.5422 19.2167C28.1373 19.2167 26.9944 20.3604 26.9944 21.7663C26.9944 23.1724 28.1373 24.3163 29.5422 24.3163C30.7551 24.3163 31.771 23.4632 32.0265 22.3254L45.531 22.3254C45.8195 23.4162 46.8119 24.2238 47.9918 24.2238C49.4022 24.2238 50.5497 23.0804 50.5497 21.6749C50.5497 20.2694 49.4022 19.126 47.9918 19.126Z" fill="white"/>
<path d="M33.9717 11.7543C33.9717 13.1598 35.1151 14.3032 36.5206 14.3032C37.9256 14.3032 39.0686 13.1598 39.0686 11.7543C39.0686 11.3955 38.994 11.0539 38.8606 10.7438L43.2017 6.74905C43.3189 6.64104 43.3889 6.49088 43.3961 6.33151L43.5643 2.58496L48.2279 2.25444L67.6904 18.8578L67.8555 23.3806C66.8396 23.7173 66.1038 24.6783 66.1038 25.8097C66.1038 27.2152 67.2468 28.3586 68.6518 28.3586C70.0621 28.3586 71.2096 27.2152 71.2096 25.8097C71.2096 24.5387 70.2774 23.484 69.0615 23.287L68.8885 18.5484C68.8823 18.3792 68.8056 18.2204 68.6769 18.1107L48.8245 1.17463C48.7148 1.08097 48.5757 1.03006 48.4323 1.03006C48.4181 1.03006 48.4039 1.03051 48.3897 1.03157L42.9425 1.41754C42.6364 1.43929 42.3952 1.68674 42.3814 1.99325L42.2003 6.02847L38.1308 9.77335C37.6916 9.41276 37.1312 9.19583 36.5209 9.19583C35.1152 9.19553 33.9717 10.3433 33.9717 11.7543Z" fill="white"/>
<path d="M64.4311 6.59213C65.042 6.59213 65.603 6.37551 66.0425 6.01567L76.9348 17.1737L77.1236 29.7864C77.1264 29.9711 77.2134 30.1443 77.3598 30.2567L80.0526 32.3241C79.9983 32.5309 79.9664 32.7468 79.9664 32.9704C79.9664 34.3807 81.1093 35.5282 82.5144 35.5282C83.9193 35.5282 85.0624 34.3807 85.0624 32.9704C85.0624 31.5649 83.9194 30.4215 82.5144 30.4215C81.7722 30.4215 81.1052 30.7425 80.6391 31.2507L78.3275 29.4761L78.1394 16.915C78.1371 16.7604 78.0757 16.6125 77.9676 16.502L66.7767 5.03783C66.9067 4.73208 66.9789 4.39581 66.9789 4.04308C66.9789 2.63274 65.836 1.48525 64.4309 1.48525C63.021 1.48525 61.874 2.63274 61.874 4.04308C61.8742 5.44873 63.0212 6.59213 64.4311 6.59213Z" fill="white"/>
</svg>
