<svg width="136" height="141" viewBox="0 0 136 141" fill="none" xmlns="http://www.w3.org/2000/svg">
<path d="M32.394 102L24.994 116H21.534L20.314 106.58L15.254 116H11.774L9.99398 102H13.194L14.434 111.84L19.694 102H22.694L23.894 111.92L29.174 102H32.394ZM38.467 116.24C37.067 116.24 35.8536 115.987 34.827 115.48C33.8003 114.973 33.0136 114.26 32.467 113.34C31.9203 112.42 31.647 111.36 31.647 110.16C31.647 108.573 32.007 107.147 32.727 105.88C33.4603 104.6 34.4803 103.593 35.787 102.86C37.107 102.127 38.6136 101.76 40.307 101.76C41.707 101.76 42.9203 102.013 43.947 102.52C44.9736 103.027 45.7603 103.74 46.307 104.66C46.8536 105.58 47.127 106.64 47.127 107.84C47.127 109.427 46.7603 110.86 46.027 112.14C45.307 113.407 44.287 114.407 42.967 115.14C41.6603 115.873 40.1603 116.24 38.467 116.24ZM38.747 113.48C39.7736 113.48 40.6736 113.233 41.447 112.74C42.2203 112.247 42.8136 111.587 43.227 110.76C43.6403 109.933 43.847 109.02 43.847 108.02C43.847 106.953 43.5136 106.107 42.847 105.48C42.1803 104.84 41.2403 104.52 40.027 104.52C39.0003 104.52 38.1003 104.767 37.327 105.26C36.5536 105.753 35.9603 106.413 35.547 107.24C35.1336 108.067 34.927 108.98 34.927 109.98C34.927 111.047 35.2603 111.9 35.927 112.54C36.5936 113.167 37.5336 113.48 38.747 113.48ZM62.062 106.34C62.062 107.647 61.7086 108.767 61.002 109.7C60.2953 110.633 59.3153 111.293 58.062 111.68L60.502 116H57.082L54.882 112.08H52.122L51.342 116H48.082L50.882 102H56.582C58.3153 102 59.662 102.38 60.622 103.14C61.582 103.9 62.062 104.967 62.062 106.34ZM55.382 109.5C56.462 109.5 57.2953 109.253 57.882 108.76C58.482 108.267 58.782 107.56 58.782 106.64C58.782 105.973 58.5553 105.473 58.102 105.14C57.6486 104.807 57.002 104.64 56.162 104.64H53.602L52.622 109.5H55.382ZM71.349 108.48L76.209 116H72.569L68.969 110.52L66.709 112.52L66.009 116H62.789L65.589 102H68.809L67.529 108.42L74.789 102H78.709L71.349 108.48ZM82.1807 116.24C81.074 116.24 80.014 116.093 79.0007 115.8C77.9874 115.507 77.174 115.133 76.5607 114.68L77.8807 112.18C78.5207 112.647 79.2407 113.007 80.0407 113.26C80.8407 113.513 81.6607 113.64 82.5007 113.64C83.394 113.64 84.1007 113.493 84.6207 113.2C85.1407 112.907 85.4007 112.507 85.4007 112C85.4007 111.587 85.194 111.273 84.7807 111.06C84.3674 110.833 83.7074 110.593 82.8007 110.34C81.894 110.073 81.154 109.82 80.5807 109.58C80.0074 109.327 79.5074 108.953 79.0807 108.46C78.6674 107.967 78.4607 107.313 78.4607 106.5C78.4607 105.553 78.7207 104.72 79.2407 104C79.774 103.28 80.5207 102.727 81.4807 102.34C82.454 101.953 83.5807 101.76 84.8607 101.76C85.8074 101.76 86.7007 101.867 87.5407 102.08C88.3807 102.28 89.1007 102.573 89.7007 102.96L88.4807 105.44C87.9607 105.08 87.374 104.813 86.7207 104.64C86.0674 104.453 85.3874 104.36 84.6807 104.36C83.7607 104.36 83.034 104.52 82.5007 104.84C81.9674 105.16 81.7007 105.573 81.7007 106.08C81.7007 106.387 81.814 106.647 82.0407 106.86C82.2674 107.06 82.554 107.227 82.9007 107.36C83.2474 107.48 83.734 107.627 84.3607 107.8C85.254 108.04 85.9874 108.287 86.5607 108.54C87.134 108.78 87.6207 109.14 88.0207 109.62C88.434 110.087 88.6407 110.707 88.6407 111.48C88.6407 112.44 88.374 113.28 87.8407 114C87.3074 114.707 86.554 115.26 85.5807 115.66C84.6074 116.047 83.474 116.24 82.1807 116.24ZM102.979 116.24C101.579 116.24 100.365 115.987 99.3387 115.48C98.312 114.973 97.5253 114.26 96.9787 113.34C96.432 112.42 96.1587 111.36 96.1587 110.16C96.1587 108.573 96.5187 107.147 97.2387 105.88C97.972 104.6 98.992 103.593 100.299 102.86C101.619 102.127 103.125 101.76 104.819 101.76C106.219 101.76 107.432 102.013 108.459 102.52C109.485 103.027 110.272 103.74 110.819 104.66C111.365 105.58 111.639 106.64 111.639 107.84C111.639 109.427 111.272 110.86 110.539 112.14C109.819 113.407 108.799 114.407 107.479 115.14C106.172 115.873 104.672 116.24 102.979 116.24ZM103.259 113.48C104.285 113.48 105.185 113.233 105.959 112.74C106.732 112.247 107.325 111.587 107.739 110.76C108.152 109.933 108.359 109.02 108.359 108.02C108.359 106.953 108.025 106.107 107.359 105.48C106.692 104.84 105.752 104.52 104.539 104.52C103.512 104.52 102.612 104.767 101.839 105.26C101.065 105.753 100.472 106.413 100.059 107.24C99.6453 108.067 99.4387 108.98 99.4387 109.98C99.4387 111.047 99.772 111.9 100.439 112.54C101.105 113.167 102.045 113.48 103.259 113.48ZM128.234 102L125.434 116H122.774L117.554 107.24L115.794 116H112.594L115.394 102H118.074L123.294 110.78L125.034 102H128.234ZM13.706 137H7.18602L5.36602 140H1.90602L10.966 126H14.166L17.606 140H14.366L13.706 137ZM13.166 134.54L11.986 129.14L8.68602 134.54H13.166ZM34.6985 126L31.8985 140H29.2385L24.0185 131.24L22.2585 140H19.0585L21.8585 126H24.5385L29.7585 134.78L31.4985 126H34.6985ZM42.8909 135.14L41.9309 140H38.6909L39.6709 135L36.0709 126H39.3109L41.8109 132.24L46.8309 126H50.1709L42.8909 135.14ZM57.1905 126H63.0505C64.4772 126 65.7039 126.24 66.7305 126.72C67.7705 127.187 68.5639 127.86 69.1105 128.74C69.6705 129.62 69.9505 130.653 69.9505 131.84C69.9505 133.467 69.5839 134.9 68.8505 136.14C68.1172 137.367 67.0905 138.32 65.7705 139C64.4639 139.667 62.9505 140 61.2305 140H54.3905L57.1905 126ZM61.3305 137.34C62.4239 137.34 63.3705 137.113 64.1705 136.66C64.9839 136.193 65.6039 135.56 66.0305 134.76C66.4572 133.947 66.6705 133.033 66.6705 132.02C66.6705 130.967 66.3305 130.147 65.6505 129.56C64.9705 128.96 63.9839 128.66 62.6905 128.66H59.9105L58.1705 137.34H61.3305ZM76.414 128.6L75.814 131.64H82.314L81.814 134.16H75.294L74.654 137.4H82.294L81.754 140H70.914L73.714 126H84.294L83.754 128.6H76.414ZM100.397 126L91.5366 140H88.3566L85.0966 126H88.4366L90.6966 135.98L97.0366 126H100.397ZM101.566 126H104.826L102.026 140H98.7655L101.566 126ZM112.688 140.24C111.288 140.24 110.061 139.987 109.008 139.48C107.968 138.973 107.168 138.26 106.608 137.34C106.048 136.42 105.768 135.36 105.768 134.16C105.768 132.573 106.128 131.147 106.848 129.88C107.581 128.6 108.608 127.593 109.928 126.86C111.248 126.127 112.761 125.76 114.468 125.76C115.721 125.76 116.828 125.973 117.788 126.4C118.748 126.827 119.475 127.44 119.968 128.24L117.628 130.16C116.881 129.067 115.755 128.52 114.248 128.52C113.221 128.52 112.315 128.76 111.528 129.24C110.741 129.72 110.128 130.373 109.688 131.2C109.261 132.027 109.048 132.947 109.048 133.96C109.048 135.04 109.388 135.9 110.068 136.54C110.761 137.167 111.728 137.48 112.968 137.48C114.448 137.48 115.688 136.94 116.688 135.86L118.608 137.82C117.221 139.433 115.248 140.24 112.688 140.24ZM125.496 128.6L124.896 131.64H131.396L130.896 134.16H124.376L123.736 137.4H131.376L130.836 140H119.996L122.796 126H133.376L132.836 128.6H125.496Z" fill="white"/>
<path d="M83.0357 0H53.9643C52.9129 0 51.9046 0.421427 51.1611 1.17157C50.4177 1.92172 50 2.93913 50 4V60C50 61.0609 50.4177 62.0783 51.1611 62.8284C51.9046 63.5786 52.9129 64 53.9643 64H83.0357C84.0871 64 85.0954 63.5786 85.8389 62.8284C86.5823 62.0783 87 61.0609 87 60V4C87 2.93913 86.5823 1.92172 85.8389 1.17157C85.0954 0.421427 84.0871 0 83.0357 0ZM84.3571 60C84.3571 60.3536 84.2179 60.6928 83.9701 60.9428C83.7223 61.1929 83.3862 61.3333 83.0357 61.3333H53.9643C53.6138 61.3333 53.2777 61.1929 53.0299 60.9428C52.7821 60.6928 52.6429 60.3536 52.6429 60V53.3333H84.3571V60ZM84.3571 50.6667H52.6429V13.3333H84.3571V50.6667ZM84.3571 10.6667H52.6429V4C52.6429 3.64638 52.7821 3.30724 53.0299 3.05719C53.2777 2.80714 53.6138 2.66667 53.9643 2.66667H83.0357C83.3862 2.66667 83.7223 2.80714 83.9701 3.05719C84.2179 3.30724 84.3571 3.64638 84.3571 4V10.6667ZM65.8571 57.3333C65.8571 56.8059 66.0121 56.2903 66.3025 55.8518C66.5929 55.4133 67.0057 55.0715 67.4886 54.8697C67.9715 54.6678 68.5029 54.615 69.0156 54.7179C69.5283 54.8208 69.9992 55.0748 70.3688 55.4477C70.7384 55.8207 70.9901 56.2958 71.0921 56.8131C71.194 57.3304 71.1417 57.8666 70.9417 58.3538C70.7416 58.8411 70.4029 59.2576 69.9683 59.5506C69.5337 59.8436 69.0227 60 68.5 60C67.7991 60 67.1269 59.7191 66.6312 59.219C66.1356 58.7189 65.8571 58.0406 65.8571 57.3333ZM72.4643 6.66667C72.4643 7.02029 72.3251 7.35943 72.0772 7.60948C71.8294 7.85952 71.4933 8 71.1429 8H65.8571C65.5067 8 65.1706 7.85952 64.9228 7.60948C64.6749 7.35943 64.5357 7.02029 64.5357 6.66667C64.5357 6.31305 64.6749 5.97391 64.9228 5.72386C65.1706 5.47381 65.5067 5.33333 65.8571 5.33333H71.1429C71.4933 5.33333 71.8294 5.47381 72.0772 5.72386C72.3251 5.97391 72.4643 6.31305 72.4643 6.66667Z" fill="white"/>
</svg>
