<svg width="155" height="145" viewBox="0 0 155 145" fill="none" xmlns="http://www.w3.org/2000/svg">
<path d="M59.195 115.36H65.075L64.555 118H53.955L54.375 115.9L60.755 110.9C61.5283 110.273 62.0617 109.747 62.355 109.32C62.6617 108.893 62.815 108.447 62.815 107.98C62.815 107.513 62.635 107.14 62.275 106.86C61.9283 106.58 61.4217 106.44 60.755 106.44C60.195 106.44 59.655 106.567 59.135 106.82C58.615 107.073 58.1617 107.433 57.775 107.9L55.595 106.32C56.1683 105.533 56.955 104.913 57.955 104.46C58.955 103.993 60.0483 103.76 61.235 103.76C62.2083 103.76 63.0617 103.92 63.795 104.24C64.5417 104.56 65.115 105.007 65.515 105.58C65.9283 106.153 66.135 106.8 66.135 107.52C66.135 108.387 65.895 109.2 65.415 109.96C64.935 110.72 64.1017 111.56 62.915 112.48L59.195 115.36ZM79.0966 115.06H76.7966L76.2166 118H73.0566L73.6566 115.06H66.1166L66.5366 112.88L74.7766 104H78.3166L70.6366 112.42H74.3166L74.8366 109.8H77.8566L77.3366 112.42H79.6366L79.0966 115.06ZM88.3539 101.16H91.2739L80.9939 120H78.0939L88.3539 101.16ZM101.683 104L101.263 106.1L93.7827 118H90.1827L97.3627 106.64H92.8227L92.3627 108.92H89.4827L90.4627 104H101.683ZM15.9404 139H9.42039L7.60039 142H4.14039L13.2004 128H16.4004L19.8404 142H16.6004L15.9404 139ZM15.4004 136.54L14.2204 131.14L10.9204 136.54H15.4004ZM36.7912 128L27.9312 142H24.7512L21.4912 128H24.8312L27.0912 137.98L33.4312 128H36.7912ZM44.6513 139H38.1313L36.3113 142H32.8513L41.9113 128H45.1113L48.5513 142H45.3113L44.6513 139ZM44.1113 136.54L42.9313 131.14L39.6313 136.54H44.1113ZM52.8038 128H56.0638L53.2638 142H50.0038L52.8038 128ZM59.3663 128H62.6263L60.3463 139.36H67.3663L66.8263 142H56.5663L59.3663 128ZM78.7138 139H72.1938L70.3738 142H66.9138L75.9738 128H79.1738L82.6138 142H79.3738L78.7138 139ZM78.1738 136.54L76.9938 131.14L73.6938 136.54H78.1738ZM95.8263 134.78C96.4263 135.02 96.8863 135.38 97.2063 135.86C97.5397 136.327 97.7063 136.9 97.7063 137.58C97.7063 139.033 97.133 140.133 95.9863 140.88C94.8397 141.627 93.313 142 91.4063 142H84.0663L86.8663 128H93.6263C95.133 128 96.293 128.28 97.1063 128.84C97.9197 129.387 98.3263 130.173 98.3263 131.2C98.3263 132.053 98.0997 132.787 97.6463 133.4C97.2063 134 96.5997 134.46 95.8263 134.78ZM89.5863 130.44L88.9263 133.74H92.2263C93.0797 133.74 93.7397 133.573 94.2063 133.24C94.6863 132.893 94.9263 132.4 94.9263 131.76C94.9263 130.88 94.2397 130.44 92.8663 130.44H89.5863ZM91.6063 139.56C92.513 139.56 93.2197 139.387 93.7263 139.04C94.233 138.693 94.4863 138.193 94.4863 137.54C94.4863 136.58 93.7863 136.1 92.3863 136.1H88.4663L87.7863 139.56H91.6063ZM102.159 128H105.419L102.619 142H99.3593L102.159 128ZM108.722 128H111.982L109.702 139.36H116.722L116.182 142H105.922L108.722 128ZM120.792 128H124.052L121.252 142H117.992L120.792 128ZM129.715 130.64H125.235L125.775 128H137.975L137.435 130.64H132.975L130.695 142H127.455L129.715 130.64ZM144.344 137.14L143.384 142H140.144L141.124 137L137.524 128H140.764L143.264 134.24L148.284 128H151.624L144.344 137.14Z" fill="white"/>
<path d="M61.4878 41.58H68.5718L68.0658 44H56.7358L57.1098 42.086L64.3698 36.344C65.3085 35.596 65.9538 34.958 66.3058 34.43C66.6725 33.902 66.8558 33.352 66.8558 32.78C66.8558 32.164 66.6285 31.6873 66.1738 31.35C65.7338 30.998 65.0812 30.822 64.2158 30.822C63.5265 30.822 62.8665 30.9687 62.2358 31.262C61.6052 31.5407 61.0478 31.944 60.5638 32.472L58.6278 30.932C59.2732 30.1547 60.1238 29.5387 61.1798 29.084C62.2358 28.6147 63.3798 28.38 64.6118 28.38C65.6678 28.38 66.5845 28.5487 67.3618 28.886C68.1392 29.2233 68.7332 29.7 69.1438 30.316C69.5545 30.9173 69.7598 31.6067 69.7598 32.384C69.7598 33.3227 69.5032 34.21 68.9898 35.046C68.4765 35.882 67.5745 36.806 66.2838 37.818L61.4878 41.58ZM83.8483 40.502H81.1203L80.4163 44H77.6223L78.3483 40.502H69.9223L70.2963 38.522L79.7343 28.6H82.9023L73.9923 38.082H78.9203L79.5583 34.98H82.2203L81.6043 38.082H84.3323L83.8483 40.502ZM94.1025 25.476H96.6985L85.3905 46.2H82.7945L94.1025 25.476ZM107.981 28.6L107.607 30.514L99.0054 44H95.8594L104.153 31.02H98.1914L97.6634 33.638H95.0014L96.0134 28.6H107.981Z" fill="white"/>
<circle cx="81" cy="36" r="35" stroke="white" stroke-width="2"/>
</svg>
