<svg width="15" height="11" viewBox="0 0 15 11" fill="none" xmlns="http://www.w3.org/2000/svg">
<path d="M11.5907 4.38677C11.7575 4.38677 11.9175 4.41176 12.0768 4.43454C12.0252 4.26406 11.9721 4.09065 11.8868 3.93487C11.8016 3.70855 11.6685 3.51236 11.5361 3.3147C11.4255 3.10087 11.2303 2.95611 11.0867 2.77315C10.9364 2.59532 10.7315 2.47702 10.5693 2.32932C10.41 2.17502 10.2014 2.09786 10.0354 1.98911C9.86187 1.89138 9.71082 1.78337 9.5493 1.73193L9.14625 1.5688L8.79181 1.42405L9.15448 0L9.6009 0.105811C9.74372 0.141082 9.91796 0.182231 10.1161 0.231463C10.3188 0.268203 10.5349 0.368871 10.7757 0.460721C11.0134 0.565063 11.2886 0.635604 11.5444 0.80314C11.8016 0.963327 12.0985 1.09706 12.3602 1.31162C12.6137 1.5328 12.9195 1.72458 13.1453 2.00601C13.3921 2.26907 13.6359 2.54536 13.8251 2.85985C14.0442 3.15965 14.193 3.48884 14.35 3.81436C14.4921 4.13988 14.6065 4.47275 14.7 4.79606C14.8772 5.44415 14.9565 6.05992 14.9871 6.58677C15.0125 7.11436 14.9976 7.55304 14.9662 7.87047C14.955 8.02037 14.934 8.16586 14.9191 8.26653L14.9004 8.38998L14.8809 8.38557C14.7479 8.99607 14.4418 9.55709 13.9978 10.0037C13.5539 10.4504 12.9904 10.7644 12.3724 10.9095C11.7545 11.0546 11.1073 11.0248 10.5059 10.8235C9.90445 10.6223 9.37327 10.2578 8.97381 9.77235C8.57435 9.28686 8.32292 8.70015 8.24861 8.08011C8.1743 7.46007 8.28016 6.83202 8.55392 6.26862C8.82768 5.70522 9.25817 5.22949 9.79558 4.89647C10.333 4.56344 10.9554 4.38673 11.5907 4.38677ZM3.36521 4.38677C3.53196 4.38677 3.69199 4.41176 3.85126 4.43454C3.79967 4.26406 3.74658 4.09065 3.66133 3.93487C3.57608 3.70855 3.44298 3.51236 3.31062 3.3147C3.19995 3.10087 3.00478 2.95611 2.86121 2.77315C2.71091 2.59532 2.50602 2.47702 2.34375 2.32932C2.18448 2.17502 1.97585 2.09786 1.80984 1.98911C1.63636 1.89138 1.48531 1.78337 1.32379 1.73193L0.920737 1.5688L0.566292 1.42405L0.928963 0L1.37538 0.105811C1.51821 0.141082 1.69244 0.182231 1.8906 0.231463C2.09325 0.268203 2.30935 0.368871 2.55014 0.460721C2.78718 0.565798 3.06311 0.635604 3.31885 0.803874C3.57608 0.964061 3.87295 1.0978 4.13467 1.31236C4.38817 1.53353 4.69401 1.72532 4.91983 2.00601C5.1666 2.26907 5.41037 2.54536 5.59956 2.85985C5.81866 3.15965 5.96746 3.48884 6.1245 3.81436C6.26657 4.13988 6.38098 4.47275 6.47446 4.79606C6.65168 5.44415 6.73094 6.05992 6.7616 6.58677C6.78703 7.11436 6.77207 7.55304 6.74066 7.87047C6.72945 8.02037 6.70851 8.16586 6.69355 8.26653L6.67486 8.38998L6.65542 8.38557C6.52242 8.99607 6.21625 9.55709 5.77232 10.0037C5.3284 10.4504 4.76486 10.7644 4.1469 10.9095C3.52894 11.0546 2.88182 11.0248 2.28037 10.8235C1.67893 10.6223 1.14776 10.2578 0.748295 9.77235C0.348831 9.28686 0.0974026 8.70015 0.0230951 8.08011C-0.0512114 7.46007 0.0546379 6.83202 0.328401 6.26862C0.602163 5.70522 1.03265 5.22949 1.57007 4.89647C2.10748 4.56344 2.72986 4.38673 3.36521 4.38677Z" fill="#0E1123"/>
</svg>
