<svg width="32" height="32" viewBox="0 0 32 32" fill="none" xmlns="http://www.w3.org/2000/svg">
<path d="M1.74821 0.570312H29.7C30.6625 0.570312 31.4286 1.33638 31.4286 2.29888V30.2703C31.4286 31.2132 30.6625 31.9989 29.7 31.9989H21.6857V19.8203H25.7714L26.3804 15.0864H21.6857V12.0614C21.6857 10.6864 22.0786 9.74353 24.0429 9.74353H26.5571V5.50067C26.125 5.44174 24.6321 5.32388 22.9036 5.32388C19.2696 5.32388 16.7946 7.52388 16.7946 11.59V15.0864H12.6893V19.8203H16.7946V31.9989H1.74821C1.28794 31.9989 0.846228 31.8174 0.518933 31.4938C0.191638 31.1702 0.00517159 30.7306 0 30.2703V2.29888C0 1.33638 0.785715 0.570312 1.74821 0.570312Z" fill="#474B62" fill-opacity="0.3"/>
</svg>
