<svg width="37" height="33" viewBox="0 0 37 33" fill="none" xmlns="http://www.w3.org/2000/svg">
<path d="M8.91895 33V10.735H1.17134V33H8.91895ZM5.04614 7.69322C7.74787 7.69322 9.42957 5.98352 9.42957 3.84697C9.37923 1.66224 7.74797 0 5.09741 0C2.44727 0 0.714233 1.66227 0.714233 3.84697C0.714233 5.98362 2.39551 7.69322 4.99557 7.69322H5.0459H5.04614ZM13.2072 33H20.9548V20.5661C20.9548 19.9007 21.0052 19.2359 21.2098 18.7602C21.7699 17.4307 23.0446 16.0537 25.1849 16.0537C27.9884 16.0537 29.11 18.0954 29.11 21.0885V32.9998H36.8571V20.2333C36.8571 13.3943 33.0348 10.2122 27.9374 10.2122C23.7579 10.2122 21.9228 12.4438 20.9033 13.9636H20.955V10.7345H13.2074C13.3091 12.8237 13.2074 32.9995 13.2074 32.9995L13.2072 33Z" fill="#474B62" fill-opacity="0.3"/>
</svg>
