<svg width="15" height="11" viewBox="0 0 15 11" fill="none" xmlns="http://www.w3.org/2000/svg">
<path d="M3.40927 4.38677C3.24252 4.38677 3.0825 4.41176 2.92322 4.43454C2.97482 4.26406 3.02791 4.09065 3.11315 3.93487C3.1984 3.70855 3.3315 3.51236 3.46386 3.3147C3.57453 3.10087 3.7697 2.95611 3.91327 2.77315C4.06358 2.59532 4.26847 2.47702 4.43073 2.32932C4.59001 2.17502 4.79864 2.09786 4.96464 1.98911C5.13813 1.89138 5.28918 1.78337 5.4507 1.73193L5.85375 1.5688L6.20819 1.42405L5.84552 0L5.3991 0.105811C5.25628 0.141082 5.08204 0.182231 4.88388 0.231463C4.68124 0.268203 4.46513 0.368871 4.22435 0.460721C3.98655 0.565063 3.71137 0.635604 3.45563 0.80314C3.1984 0.963327 2.90153 1.09706 2.63981 1.31162C2.38632 1.5328 2.08048 1.72458 1.85465 2.00601C1.60788 2.26907 1.36411 2.54536 1.17492 2.85985C0.955826 3.15965 0.807018 3.48884 0.649986 3.81436C0.507909 4.13988 0.393499 4.47275 0.300027 4.79606C0.122805 5.44415 0.0435408 6.05992 0.0128821 6.58677C-0.0125422 7.11436 0.00241326 7.55304 0.0338198 7.87047C0.0450364 8.02037 0.0659741 8.16586 0.0809296 8.26653L0.0996239 8.38998L0.119066 8.38557C0.252066 8.99607 0.558237 9.55709 1.00216 10.0037C1.44608 10.4504 2.00962 10.7644 2.62758 10.9095C3.24554 11.0546 3.89267 11.0248 4.49411 10.8235C5.09555 10.6223 5.62673 10.2578 6.02619 9.77235C6.42565 9.28686 6.67708 8.70015 6.75139 8.08011C6.8257 7.46007 6.71984 6.83202 6.44608 6.26862C6.17232 5.70522 5.74183 5.22949 5.20442 4.89647C4.667 4.56344 4.04462 4.38673 3.40927 4.38677ZM11.6348 4.38677C11.468 4.38677 11.308 4.41176 11.1487 4.43454C11.2003 4.26406 11.2534 4.09065 11.3387 3.93487C11.4239 3.70855 11.557 3.51236 11.6894 3.3147C11.8 3.10087 11.9952 2.95611 12.1388 2.77315C12.2891 2.59532 12.494 2.47702 12.6562 2.32932C12.8155 2.17502 13.0242 2.09786 13.1902 1.98911C13.3636 1.89138 13.5147 1.78337 13.6762 1.73193L14.0793 1.5688L14.4337 1.42405L14.071 0L13.6246 0.105811C13.4818 0.141082 13.3076 0.182231 13.1094 0.231463C12.9068 0.268203 12.6906 0.368871 12.4499 0.460721C12.2128 0.565798 11.9369 0.635604 11.6812 0.803874C11.4239 0.964061 11.1271 1.0978 10.8653 1.31236C10.6118 1.53353 10.306 1.72532 10.0802 2.00601C9.8334 2.26907 9.58963 2.54536 9.40044 2.85985C9.18134 3.15965 9.03254 3.48884 8.8755 3.81436C8.73343 4.13988 8.61902 4.47275 8.52554 4.79606C8.34832 5.44415 8.26906 6.05992 8.2384 6.58677C8.21297 7.11436 8.22793 7.55304 8.25934 7.87047C8.27055 8.02037 8.29149 8.16586 8.30645 8.26653L8.32514 8.38998L8.34458 8.38557C8.47758 8.99607 8.78375 9.55709 9.22768 10.0037C9.6716 10.4504 10.2351 10.7644 10.8531 10.9095C11.4711 11.0546 12.1182 11.0248 12.7196 10.8235C13.3211 10.6223 13.8522 10.2578 14.2517 9.77235C14.6512 9.28686 14.9026 8.70015 14.9769 8.08011C15.0512 7.46007 14.9454 6.83202 14.6716 6.26862C14.3978 5.70522 13.9673 5.22949 13.4299 4.89647C12.8925 4.56344 12.2701 4.38673 11.6348 4.38677Z" fill="#0E1123"/>
</svg>
