<svg width="170" height="137" viewBox="0 0 170 137" fill="none" xmlns="http://www.w3.org/2000/svg">
<path d="M8.87594 98C10.6226 98 11.9693 98.3867 12.9159 99.16C13.8759 99.92 14.3559 100.987 14.3559 102.36C14.3559 103.533 14.0759 104.56 13.5159 105.44C12.9693 106.307 12.1826 106.973 11.1559 107.44C10.1426 107.907 8.9426 108.14 7.55594 108.14H4.43594L3.67594 112H0.415938L3.21594 98H8.87594ZM7.69594 105.5C8.77594 105.5 9.60927 105.253 10.1959 104.76C10.7826 104.267 11.0759 103.56 11.0759 102.64C11.0759 101.973 10.8493 101.473 10.3959 101.14C9.95594 100.807 9.31594 100.64 8.47594 100.64H5.93594L4.95594 105.5H7.69594ZM20.3691 100.6L19.7691 103.64H26.2691L25.7691 106.16H19.2491L18.6091 109.4H26.2491L25.7091 112H14.8691L17.6691 98H28.2491L27.7091 100.6H20.3691ZM42.267 102.34C42.267 103.647 41.9137 104.767 41.207 105.7C40.5004 106.633 39.5204 107.293 38.267 107.68L40.707 112H37.287L35.087 108.08H32.327L31.547 112H28.287L31.087 98H36.787C38.5204 98 39.867 98.38 40.827 99.14C41.787 99.9 42.267 100.967 42.267 102.34ZM35.587 105.5C36.667 105.5 37.5004 105.253 38.087 104.76C38.687 104.267 38.987 103.56 38.987 102.64C38.987 101.973 38.7604 101.473 38.307 101.14C37.8537 100.807 37.207 100.64 36.367 100.64H33.807L32.827 105.5H35.587ZM47.8741 112.24C46.7674 112.24 45.7074 112.093 44.6941 111.8C43.6807 111.507 42.8674 111.133 42.2541 110.68L43.5741 108.18C44.2141 108.647 44.9341 109.007 45.7341 109.26C46.5341 109.513 47.3541 109.64 48.1941 109.64C49.0874 109.64 49.7941 109.493 50.3141 109.2C50.8341 108.907 51.0941 108.507 51.0941 108C51.0941 107.587 50.8874 107.273 50.4741 107.06C50.0607 106.833 49.4007 106.593 48.4941 106.34C47.5874 106.073 46.8474 105.82 46.2741 105.58C45.7007 105.327 45.2007 104.953 44.7741 104.46C44.3607 103.967 44.1541 103.313 44.1541 102.5C44.1541 101.553 44.4141 100.72 44.9341 100C45.4674 99.28 46.2141 98.7267 47.1741 98.34C48.1474 97.9533 49.2741 97.76 50.5541 97.76C51.5007 97.76 52.3941 97.8667 53.2341 98.08C54.0741 98.28 54.7941 98.5733 55.3941 98.96L54.1741 101.44C53.6541 101.08 53.0674 100.813 52.4141 100.64C51.7607 100.453 51.0807 100.36 50.3741 100.36C49.4541 100.36 48.7274 100.52 48.1941 100.84C47.6607 101.16 47.3941 101.573 47.3941 102.08C47.3941 102.387 47.5074 102.647 47.7341 102.86C47.9607 103.06 48.2474 103.227 48.5941 103.36C48.9407 103.48 49.4274 103.627 50.0541 103.8C50.9474 104.04 51.6807 104.287 52.2541 104.54C52.8274 104.78 53.3141 105.14 53.7141 105.62C54.1274 106.087 54.3341 106.707 54.3341 107.48C54.3341 108.44 54.0674 109.28 53.5341 110C53.0007 110.707 52.2474 111.26 51.2741 111.66C50.3007 112.047 49.1674 112.24 47.8741 112.24ZM63.008 112.24C61.608 112.24 60.3946 111.987 59.368 111.48C58.3413 110.973 57.5546 110.26 57.008 109.34C56.4613 108.42 56.188 107.36 56.188 106.16C56.188 104.573 56.548 103.147 57.268 101.88C58.0013 100.6 59.0213 99.5933 60.328 98.86C61.648 98.1267 63.1546 97.76 64.848 97.76C66.248 97.76 67.4613 98.0133 68.488 98.52C69.5146 99.0267 70.3013 99.74 70.848 100.66C71.3946 101.58 71.668 102.64 71.668 103.84C71.668 105.427 71.3013 106.86 70.568 108.14C69.848 109.407 68.828 110.407 67.508 111.14C66.2013 111.873 64.7013 112.24 63.008 112.24ZM63.288 109.48C64.3146 109.48 65.2146 109.233 65.988 108.74C66.7613 108.247 67.3546 107.587 67.768 106.76C68.1813 105.933 68.388 105.02 68.388 104.02C68.388 102.953 68.0546 102.107 67.388 101.48C66.7213 100.84 65.7813 100.52 64.568 100.52C63.5413 100.52 62.6413 100.767 61.868 101.26C61.0946 101.753 60.5013 102.413 60.088 103.24C59.6746 104.067 59.468 104.98 59.468 105.98C59.468 107.047 59.8013 107.9 60.468 108.54C61.1346 109.167 62.0746 109.48 63.288 109.48ZM88.263 98L85.463 112H82.803L77.583 103.24L75.823 112H72.623L75.423 98H78.103L83.323 106.78L85.063 98H88.263ZM98.7353 109H92.2153L90.3953 112H86.9353L95.9953 98H99.1953L102.635 112H99.3953L98.7353 109ZM98.1953 106.54L97.0153 101.14L93.7153 106.54H98.1953ZM106.888 98H110.148L107.868 109.36H114.888L114.348 112H104.088L106.888 98ZM118.958 98H122.218L119.418 112H116.158L118.958 98ZM136.161 100.1L126.741 109.36H134.581L134.041 112H121.801L122.221 109.9L131.661 100.64H124.281L124.821 98H136.581L136.161 100.1ZM141.639 100.6L141.039 103.64H147.539L147.039 106.16H140.519L139.879 109.4H147.519L146.979 112H136.139L138.939 98H149.519L148.979 100.6H141.639ZM152.357 98H158.217C159.643 98 160.87 98.24 161.897 98.72C162.937 99.1867 163.73 99.86 164.277 100.74C164.837 101.62 165.117 102.653 165.117 103.84C165.117 105.467 164.75 106.9 164.017 108.14C163.283 109.367 162.257 110.32 160.937 111C159.63 111.667 158.117 112 156.397 112H149.557L152.357 98ZM156.497 109.34C157.59 109.34 158.537 109.113 159.337 108.66C160.15 108.193 160.77 107.56 161.197 106.76C161.623 105.947 161.837 105.033 161.837 104.02C161.837 102.967 161.497 102.147 160.817 101.56C160.137 100.96 159.15 100.66 157.857 100.66H155.077L153.337 109.34H156.497ZM47.0131 122L39.6131 136H36.1531L34.9331 126.58L29.8731 136H26.3931L24.6131 122H27.8131L29.0531 131.84L34.3131 122H37.3131L38.5131 131.92L43.7931 122H47.0131ZM53.0861 136.24C51.6861 136.24 50.4728 135.987 49.4461 135.48C48.4194 134.973 47.6328 134.26 47.0861 133.34C46.5394 132.42 46.2661 131.36 46.2661 130.16C46.2661 128.573 46.6261 127.147 47.3461 125.88C48.0794 124.6 49.0994 123.593 50.4061 122.86C51.7261 122.127 53.2328 121.76 54.9261 121.76C56.3261 121.76 57.5394 122.013 58.5661 122.52C59.5928 123.027 60.3794 123.74 60.9261 124.66C61.4728 125.58 61.7461 126.64 61.7461 127.84C61.7461 129.427 61.3794 130.86 60.6461 132.14C59.9261 133.407 58.9061 134.407 57.5861 135.14C56.2794 135.873 54.7794 136.24 53.0861 136.24ZM53.3661 133.48C54.3928 133.48 55.2928 133.233 56.0661 132.74C56.8394 132.247 57.4328 131.587 57.8461 130.76C58.2594 129.933 58.4661 129.02 58.4661 128.02C58.4661 126.953 58.1328 126.107 57.4661 125.48C56.7994 124.84 55.8594 124.52 54.6461 124.52C53.6194 124.52 52.7194 124.767 51.9461 125.26C51.1728 125.753 50.5794 126.413 50.1661 127.24C49.7528 128.067 49.5461 128.98 49.5461 129.98C49.5461 131.047 49.8794 131.9 50.5461 132.54C51.2128 133.167 52.1528 133.48 53.3661 133.48ZM76.6811 126.34C76.6811 127.647 76.3278 128.767 75.6211 129.7C74.9144 130.633 73.9344 131.293 72.6811 131.68L75.1211 136H71.7011L69.5011 132.08H66.7411L65.9611 136H62.7011L65.5011 122H71.2011C72.9344 122 74.2811 122.38 75.2411 123.14C76.2011 123.9 76.6811 124.967 76.6811 126.34ZM70.0011 129.5C71.0811 129.5 71.9144 129.253 72.5011 128.76C73.1011 128.267 73.4011 127.56 73.4011 126.64C73.4011 125.973 73.1744 125.473 72.7211 125.14C72.2678 124.807 71.6211 124.64 70.7811 124.64H68.2211L67.2411 129.5H70.0011ZM85.9681 128.48L90.8281 136H87.1881L83.5881 130.52L81.3281 132.52L80.6281 136H77.4081L80.2081 122H83.4281L82.1481 128.42L89.4081 122H93.3281L85.9681 128.48ZM98.965 136.24C97.565 136.24 96.3517 135.987 95.325 135.48C94.2983 134.973 93.5117 134.26 92.965 133.34C92.4183 132.42 92.145 131.36 92.145 130.16C92.145 128.573 92.505 127.147 93.225 125.88C93.9583 124.6 94.9783 123.593 96.285 122.86C97.605 122.127 99.1117 121.76 100.805 121.76C102.205 121.76 103.418 122.013 104.445 122.52C105.472 123.027 106.258 123.74 106.805 124.66C107.352 125.58 107.625 126.64 107.625 127.84C107.625 129.427 107.258 130.86 106.525 132.14C105.805 133.407 104.785 134.407 103.465 135.14C102.158 135.873 100.658 136.24 98.965 136.24ZM99.245 133.48C100.272 133.48 101.172 133.233 101.945 132.74C102.718 132.247 103.312 131.587 103.725 130.76C104.138 129.933 104.345 129.02 104.345 128.02C104.345 126.953 104.012 126.107 103.345 125.48C102.678 124.84 101.738 124.52 100.525 124.52C99.4983 124.52 98.5983 124.767 97.825 125.26C97.0517 125.753 96.4583 126.413 96.045 127.24C95.6317 128.067 95.425 128.98 95.425 129.98C95.425 131.047 95.7583 131.9 96.425 132.54C97.0917 133.167 98.0317 133.48 99.245 133.48ZM115.18 136.24C113.42 136.24 112.04 135.807 111.04 134.94C110.04 134.06 109.54 132.86 109.54 131.34C109.54 130.9 109.593 130.4 109.7 129.84L111.26 122H114.52L112.96 129.78C112.88 130.22 112.84 130.613 112.84 130.96C112.84 131.8 113.067 132.433 113.52 132.86C113.987 133.273 114.66 133.48 115.54 133.48C116.527 133.48 117.313 133.187 117.9 132.6C118.487 132.013 118.913 131.073 119.18 129.78L120.74 122H123.92L122.34 129.98C121.487 134.153 119.1 136.24 115.18 136.24ZM129.267 124.64H124.787L125.327 122H137.527L136.987 124.64H132.527L130.247 136H127.007L129.267 124.64ZM141.253 136.24C140.146 136.24 139.086 136.093 138.073 135.8C137.06 135.507 136.246 135.133 135.633 134.68L136.953 132.18C137.593 132.647 138.313 133.007 139.113 133.26C139.913 133.513 140.733 133.64 141.573 133.64C142.466 133.64 143.173 133.493 143.693 133.2C144.213 132.907 144.473 132.507 144.473 132C144.473 131.587 144.266 131.273 143.853 131.06C143.44 130.833 142.78 130.593 141.873 130.34C140.966 130.073 140.226 129.82 139.653 129.58C139.08 129.327 138.58 128.953 138.153 128.46C137.74 127.967 137.533 127.313 137.533 126.5C137.533 125.553 137.793 124.72 138.313 124C138.846 123.28 139.593 122.727 140.553 122.34C141.526 121.953 142.653 121.76 143.933 121.76C144.88 121.76 145.773 121.867 146.613 122.08C147.453 122.28 148.173 122.573 148.773 122.96L147.553 125.44C147.033 125.08 146.446 124.813 145.793 124.64C145.14 124.453 144.46 124.36 143.753 124.36C142.833 124.36 142.106 124.52 141.573 124.84C141.04 125.16 140.773 125.573 140.773 126.08C140.773 126.387 140.886 126.647 141.113 126.86C141.34 127.06 141.626 127.227 141.973 127.36C142.32 127.48 142.806 127.627 143.433 127.8C144.326 128.04 145.06 128.287 145.633 128.54C146.206 128.78 146.693 129.14 147.093 129.62C147.506 130.087 147.713 130.707 147.713 131.48C147.713 132.44 147.446 133.28 146.913 134C146.38 134.707 145.626 135.26 144.653 135.66C143.68 136.047 142.546 136.24 141.253 136.24Z" fill="white"/>
<path d="M78.8549 6.93458C78.8549 8.30611 79.2616 9.64684 80.0236 10.7872C80.7855 11.9276 81.8686 12.8164 83.1357 13.3413C84.4028 13.8662 85.7971 14.0035 87.1423 13.7359C88.4875 13.4683 89.7231 12.8079 90.6929 11.8381C91.6628 10.8682 92.3232 9.63262 92.5908 8.28745C92.8584 6.94227 92.721 5.54796 92.1962 4.28083C91.6713 3.0137 90.7825 1.93067 89.6421 1.16869C88.5017 0.406706 87.161 0 85.7895 0C83.9509 0.00209757 82.1883 0.733376 80.8883 2.03341C79.5883 3.33344 78.857 5.09606 78.8549 6.93458ZM90.7427 6.93458C90.7427 7.91424 90.4522 8.87191 89.9079 9.68647C89.3637 10.501 88.5901 11.1359 87.685 11.5108C86.7799 11.8857 85.784 11.9838 84.8231 11.7927C83.8623 11.6016 82.9797 11.1298 82.287 10.4371C81.5942 9.74434 81.1225 8.86175 80.9314 7.90091C80.7402 6.94007 80.8383 5.94414 81.2132 5.03904C81.5881 4.13395 82.223 3.36036 83.0376 2.81608C83.8521 2.27181 84.8098 1.98131 85.7895 1.98131C87.1027 1.98282 88.3617 2.50516 89.2903 3.43375C90.2189 4.36234 90.7412 5.62135 90.7427 6.93458Z" fill="white"/>
<path d="M103.258 30.7053L105.18 31.1858L106.484 25.9675C107.051 23.7165 106.763 21.3356 105.679 19.2837C104.594 17.2317 102.788 15.6539 100.609 14.8543L98.8845 14.2188L98.1992 16.0778L99.9236 16.7133C101.644 17.3446 103.07 18.5903 103.926 20.2102C104.783 21.8302 105.009 23.7098 104.562 25.4869L103.258 30.7053Z" fill="white"/>
<path d="M93.9356 12.407L93.25 14.2656L96.221 15.3615L96.9066 13.503L93.9356 12.407Z" fill="white"/>
<path d="M91.9692 35.0282L98.6959 36.7098C98.9507 36.7735 99.2205 36.7333 99.4457 36.5982C99.671 36.463 99.8333 36.2439 99.897 35.989L102.644 25.0064C102.971 23.7031 102.805 22.3247 102.177 21.1368C101.549 19.9488 100.503 19.0353 99.2417 18.5723L89.9719 15.1559C89.862 15.1155 89.7459 15.0948 89.6288 15.0949H75.7596V4.19769C75.7596 3.93495 75.6553 3.68297 75.4695 3.49719C75.2837 3.3114 75.0317 3.20703 74.769 3.20703H67.8344C67.5717 3.20703 67.3197 3.3114 67.1339 3.49719C66.9481 3.68297 66.8438 3.93495 66.8438 4.19769V18.5622C66.8454 20.0067 67.4199 21.3917 68.4414 22.4131C69.4628 23.4346 70.8478 24.0092 72.2923 24.0108H79.7222V27.9734H73.2768C72.1592 27.9733 71.0616 28.2697 70.096 28.8325C69.1304 29.3952 68.3314 30.2042 67.7807 31.1767C67.23 32.1492 66.9472 33.2504 66.9612 34.3679C66.9752 35.4855 67.2855 36.5793 67.8604 37.5376L75.0885 49.5852C75.1554 49.6968 75.2437 49.7941 75.3482 49.8716C75.4527 49.949 75.5715 50.0051 75.6977 50.0367C75.824 50.0682 75.9552 50.0746 76.0839 50.0555C76.2126 50.0363 76.3362 49.992 76.4478 49.925L80.6758 47.3875L79.7262 58.0434C79.7146 58.1738 79.7289 58.3051 79.7683 58.4299C79.8078 58.5547 79.8715 58.6704 79.9559 58.7704C80.0403 58.8704 80.1437 58.9527 80.2601 59.0125C80.3765 59.0723 80.5036 59.1085 80.634 59.1189L87.5463 59.6712C87.5731 59.6733 87.5997 59.6743 87.6262 59.6743C87.8737 59.674 88.1122 59.5811 88.2947 59.4138C88.4771 59.2465 88.5903 59.0169 88.612 58.7703L90.6156 35.9853C90.6182 35.9564 90.6194 35.9275 90.6194 35.8986V24.7484L93.2636 25.7651L91.2484 33.8265C91.2168 33.9528 91.2104 34.084 91.2295 34.2127C91.2486 34.3414 91.2929 34.4651 91.3599 34.5767C91.4268 34.6883 91.5151 34.7856 91.6196 34.8631C91.7242 34.9405 91.843 34.9967 91.9692 35.0282ZM81.1276 42.3195L77.8696 36.8893H81.6114L81.1276 42.3195ZM86.7248 57.618L81.7888 57.2234L82.7992 45.8849C82.8765 45.6981 82.8949 45.4921 82.8518 45.2946L83.6005 36.8893H85.6662C86.7369 36.8903 87.7789 36.5426 88.6343 35.8986L86.7248 57.618ZM89.9847 22.3815C89.8346 22.3237 89.6727 22.3034 89.513 22.3222C89.3533 22.341 89.2006 22.3983 89.068 22.4894C88.9354 22.5804 88.827 22.7023 88.7521 22.8446C88.6772 22.987 88.6381 23.1453 88.6381 23.3062V31.936C88.6372 32.7239 88.3238 33.4793 87.7667 34.0365C87.2095 34.5936 86.4541 34.907 85.6662 34.908H76.12C75.9447 34.908 75.7725 34.9545 75.621 35.0428C75.4696 35.1311 75.3443 35.258 75.2579 35.4105C75.1715 35.5631 75.1272 35.7358 75.1294 35.9111C75.1316 36.0864 75.1803 36.258 75.2705 36.4083L80.5253 45.1669L76.2779 47.7164L69.5594 36.5184C69.165 35.8607 68.9521 35.1101 68.9426 34.3432C68.9331 33.5763 69.1272 32.8207 69.5052 32.1534C69.8832 31.4861 70.4315 30.931 71.0941 30.5448C71.7567 30.1587 72.5099 29.9552 73.2768 29.9553H83.6849V27.9734H81.7036V23.0201C81.7036 22.7574 81.5992 22.5054 81.4134 22.3196C81.2276 22.1338 80.9756 22.0295 80.7129 22.0295H72.2923C71.3731 22.0284 70.4918 21.6628 69.8418 21.0128C69.1917 20.3627 68.8261 19.4814 68.8251 18.5622V5.18834H73.7783V16.0855C73.7783 16.3483 73.8827 16.6002 74.0685 16.786C74.2543 16.9718 74.5062 17.0762 74.769 17.0762H89.4521L98.5561 20.432C99.3588 20.7266 100.024 21.3079 100.424 22.0639C100.824 22.8198 100.929 23.697 100.721 24.5263L98.2152 34.548L93.4105 33.3468L95.398 25.3958C95.4567 25.1612 95.4275 24.9132 95.3159 24.6986C95.2044 24.484 95.0182 24.3176 94.7924 24.2308L89.9847 22.3815Z" fill="white"/>
<path d="M64.9371 40.3711L66.636 39.3517L66.1593 38.5572C65.5435 37.5266 65.1581 36.375 65.0293 35.1814C64.9006 33.9877 65.0316 32.7804 65.4135 31.6422C65.7954 30.504 66.419 29.4619 67.2415 28.5874C68.0641 27.7129 69.0662 27.0268 70.1789 26.5761L69.4483 24.7344C68.0684 25.291 66.8255 26.14 65.8051 27.2228C64.7846 28.3056 64.0107 29.5966 63.5367 31.007C63.0628 32.4173 62.8999 33.9137 63.0593 35.393C63.2188 36.8723 63.6967 38.2996 64.4604 39.5766L64.9371 40.3711Z" fill="white"/>
<path d="M67.6911 41.1095L65.9922 42.1289L66.983 43.78L68.6819 42.7606L67.6911 41.1095Z" fill="white"/>
</svg>
