<svg width="36" height="31" viewBox="0 0 36 31" fill="none" xmlns="http://www.w3.org/2000/svg">
<path d="M35.0011 3.67889C34.0537 5.17894 32.8549 6.5146 31.4628 7.58313C31.4821 7.89136 31.4821 8.22014 31.4821 8.54892C31.4821 18.515 24.3474 30.0017 11.3154 30.0017C7.31304 30.0017 3.58133 28.7482 0.429688 26.6112C0.99041 26.6728 1.55113 26.7139 2.13119 26.7139C5.45685 26.7139 8.51182 25.5015 10.9287 23.4878C9.45025 23.4553 8.01823 22.9328 6.8327 21.9934C5.64717 21.054 4.76733 19.7445 4.31607 18.2479C4.74145 18.3301 5.18616 18.3917 5.65021 18.3917C6.28827 18.3917 6.92633 18.289 7.50639 18.1246C5.90272 17.7747 4.46163 16.8479 3.42611 15.5003C2.39058 14.1527 1.82397 12.4669 1.82183 10.7271V10.6449C2.78859 11.1997 3.87136 11.549 5.03148 11.5901C4.06047 10.8979 3.26493 9.96205 2.71523 8.86534C2.16552 7.76862 1.8786 6.54484 1.87983 5.30223C1.87983 3.92548 2.22787 2.63091 2.84659 1.52129C6.34627 6.08308 11.5668 9.08318 17.464 9.39141C17.348 8.8366 17.2707 8.26124 17.2707 7.66533C17.2758 5.6688 18.0257 3.7559 19.3559 2.34607C20.6861 0.936234 22.4881 0.144524 24.3667 0.144531C26.4163 0.144531 28.2531 1.04867 29.5486 2.52817C31.1534 2.17884 32.6809 1.56239 34.0537 0.699344C33.5123 2.44598 32.3909 3.92548 30.9214 4.85017C32.3301 4.68652 33.7065 4.29139 35.0011 3.67889Z" fill="#474B62" fill-opacity="0.3"/>
</svg>
